<svg width="46" height="46" viewBox="0 0 46 46" fill="none" xmlns="http://www.w3.org/2000/svg">
<path d="M7.66663 26.8332V22.9998H21.0833V26.8332H7.66663ZM7.66663 19.1665V15.3332H28.75V19.1665H7.66663ZM7.66663 11.4998V7.6665H28.75V11.4998H7.66663ZM24.9166 38.3332V32.4394L35.5062 21.8978C35.7937 21.6103 36.1132 21.4026 36.4645 21.2748C36.8159 21.1471 37.1673 21.0832 37.5187 21.0832C37.902 21.0832 38.2694 21.155 38.6208 21.2988C38.9722 21.4425 39.2916 21.6582 39.5791 21.9457L41.352 23.7186C41.6076 24.0061 41.8073 24.3255 41.951 24.6769C42.0947 25.0283 42.1666 25.3797 42.1666 25.7311C42.1666 26.0825 42.1027 26.4419 41.975 26.8092C41.8472 27.1766 41.6395 27.504 41.352 27.7915L30.8104 38.3332H24.9166ZM27.7916 35.4582H29.6125L35.4104 29.6123L34.5479 28.7019L33.6375 27.8394L27.7916 33.6373V35.4582ZM34.5479 28.7019L33.6375 27.8394L35.4104 29.6123L34.5479 28.7019Z" fill="#0D1B2A"/>
</svg>
