<?xml version="1.0" encoding="UTF-8" standalone="no"?>
<svg width="148" height="109" viewBox="0 0 202 202" fill="none" xmlns="http://www.w3.org/2000/svg">
	<rect width="200" height="200" fill="white"/>
	<path d="M24 118.597L26.5955 120.76L34.382 112.974L38.7079 117.299L41.736 114.271L38.7079 111.243L41.736 108.215L44.764 111.243L47.7921 108.215L46.4944 106.917L50.3876 103.024L51.6854 104.322L55.5787 100.429L50.3876 95.2376L52.9831 92.6421L58.1742 97.8331L72.882 83.1252C87.0422 92.0259 110.662 73.8777 100.567 55.0297L90.8578 60.1982C94.1883 67.4753 83.6966 77.069 77.2079 69.7151C69.476 59.1346 81.2679 51.2338 88.4551 57.1768L97.9719 51.114C82.8315 32.0802 55.5787 49.3836 62.9326 73.6084L24 112.974V118.597Z" fill="#1B263B"/>
	<path d="M24 118.597L26.5955 120.76L34.382 112.974L38.7079 117.299L41.736 114.271L38.7079 111.243L41.736 108.215L44.764 111.243L47.7921 108.215L46.4944 106.917L50.3876 103.024L51.6854 104.322L55.5787 100.429L50.3876 95.2376L52.9831 92.6421L58.1742 97.8331L72.882 83.1252C87.0422 92.0259 110.662 73.8777 100.567 55.0297L90.8578 60.1982C94.1883 67.4753 83.6966 77.069 77.2079 69.7151C69.476 59.1346 81.2679 51.2338 88.4551 57.1768L97.9719 51.114C82.8315 32.0802 55.5787 49.3836 62.9326 73.6084L24 112.974V118.597Z" fill="#D2C22B"/>
	<path d="M108.354 73.6083L151.18 116.434C155.334 115.049 157.021 114.94 161.129 116.434L173.242 103.457C172.406 99.5582 171.989 97.266 173.242 93.5072L131.281 50.6814C127.006 52.1062 125.173 52.1062 120.899 50.6814L116.703 54.8776C118.327 57.5409 115.228 60.8147 112.68 59.4249L108.354 64.0915C109.219 67.1196 109.652 69.7151 108.354 73.6083Z" fill="#1B263B"/>
	<path d="M97.9719 51.114C82.8315 32.0802 55.5787 49.3836 62.9326 73.6084L24 112.974V118.597L26.5955 120.76L34.382 112.974L38.7079 117.299L41.736 114.271L38.7079 111.243L41.736 108.215L44.764 111.243L47.7921 108.215L46.4944 106.917L50.3876 103.024L51.6854 104.322L55.5787 100.429L50.3876 95.2376L52.9831 92.6421L58.1742 97.8331L72.882 83.1252C87.0422 92.0259 110.662 73.8777 100.567 55.0297M97.9719 51.114C94.2553 53.4816 92.1716 54.8091 88.4551 57.1768M97.9719 51.114C105.006 49.2629 107.469 49.5898 113.978 52.8443M97.9719 51.114L88.4551 57.1768M88.4551 57.1768C81.2679 51.2338 69.476 59.1346 77.2079 69.7151C83.6966 77.069 94.1883 67.4753 90.8578 60.1982M88.4551 57.1768C87.1573 58.4679 87.5899 61.0634 90.8578 60.1982M113.978 52.8443L110.517 56.305M113.978 52.8443C116.343 50.3103 117.669 48.8895 120.034 46.3555M113.978 52.8443C114.537 53.0618 115.01 53.3094 115.408 53.5766C116 53.9736 116.422 54.4166 116.703 54.8776M113.978 52.8443L120.034 46.3555M110.517 56.305L104.028 62.7937C105.91 67.6856 105.794 69.5302 104.028 74.4735L149.882 120.76C154.982 119.06 156.991 118.836 161.994 120.76L178 104.322C175.925 99.135 175.51 97.6222 178 92.6421L131.713 46.3555C126.567 48.561 125.111 48.6988 120.034 46.3555M110.517 56.305C106.328 53.3728 105.34 53.1749 100.567 55.0297M110.517 56.305C110.808 57.2282 111.176 57.9385 111.589 58.4679C111.928 58.9035 112.298 59.2166 112.68 59.4249M100.567 55.0297C96.7756 57.0481 94.6496 58.1798 90.8578 60.1982M100.567 55.0297L90.8578 60.1982M112.68 59.4249L108.354 64.0915C109.219 67.1196 109.652 69.7151 108.354 73.6083L151.18 116.434C155.334 115.049 157.021 114.94 161.129 116.434L173.242 103.457C172.406 99.5582 171.989 97.266 173.242 93.5072L131.281 50.6814C127.006 52.1062 125.173 52.1062 120.899 50.6814L116.703 54.8776M112.68 59.4249C115.228 60.8147 118.327 57.5409 116.703 54.8776" stroke="black" stroke-width="2.59551"/>
	<path d="M59.7685 154.866V142.916C59.7685 142.647 60.4153 142.513 61.709 142.513C63.0154 142.513 63.6686 142.647 63.6686 142.916V152.33H66.6274C66.8579 152.33 67.018 152.631 67.1077 153.233C67.1461 153.528 67.1653 153.829 67.1653 154.136C67.1653 154.444 67.1461 154.758 67.1077 155.078C67.0052 155.693 66.8387 156 66.6081 156H60.6907C60.4089 156 60.1848 155.885 60.0183 155.654C59.8518 155.424 59.7685 155.161 59.7685 154.866ZM71.7296 155.885C71.7296 155.987 71.1404 156.038 69.9621 156.038C68.7965 156.038 68.2137 155.994 68.2137 155.904V146.471C68.2137 146.381 68.7965 146.336 69.9621 146.336C71.1404 146.336 71.7296 146.375 71.7296 146.451V155.885ZM71.7296 145.318C71.7296 145.408 71.1404 145.452 69.9621 145.452C68.7965 145.452 68.2137 145.414 68.2137 145.337V142.57C68.2137 142.442 68.7965 142.378 69.9621 142.378C71.1404 142.378 71.7296 142.417 71.7296 142.494V145.318ZM72.7179 146.451C72.6794 146.349 73.275 146.298 74.5046 146.298C75.747 146.298 76.3682 146.33 76.3682 146.394L77.7515 152.926L78.789 146.49C78.8274 146.375 79.4614 146.317 80.691 146.317C81.9334 146.317 82.5354 146.368 82.497 146.471L79.788 155.866C79.6984 155.994 78.9363 156.058 77.5018 156.058C76.0672 156.058 75.2987 155.962 75.1963 155.769L72.7179 146.451ZM90.7485 155.481C89.9415 155.955 88.9041 156.192 87.636 156.192C86.368 156.192 85.2985 155.763 84.4276 154.905C83.5566 154.034 83.1211 152.836 83.1211 151.312C83.1211 149.775 83.5374 148.539 84.3699 147.604C85.2153 146.669 86.2784 146.202 87.5592 146.202C88.84 146.202 89.8263 146.528 90.5179 147.181C91.2224 147.835 91.5746 148.629 91.5746 149.564C91.5746 151.639 90.3834 152.676 88.0011 152.676H86.6754C86.6754 153.06 86.7779 153.329 86.9828 153.483C87.2006 153.624 87.5144 153.695 87.9242 153.695C88.8208 153.695 89.6726 153.49 90.4795 153.08C90.4923 153.067 90.5499 153.157 90.6524 153.349C90.9598 153.899 91.1135 154.367 91.1135 154.751C91.1135 155.123 90.9918 155.366 90.7485 155.481ZM88.3469 149.929C88.3469 149.391 88.0843 149.122 87.5592 149.122C87.3158 149.122 87.1045 149.199 86.9252 149.352C86.7587 149.493 86.6754 149.705 86.6754 149.986V150.582H87.7129C88.1356 150.582 88.3469 150.364 88.3469 149.929ZM98.6703 146.605L98.6895 146.413C98.6895 146.093 98.5806 145.837 98.3629 145.644C98.158 145.452 97.9018 145.356 97.5944 145.356C97.287 145.356 97.0308 145.459 96.8259 145.664C96.621 145.869 96.5185 146.15 96.5185 146.509C96.5185 147.482 97.2038 147.969 98.5742 147.969C98.8816 147.969 99.2275 147.944 99.6117 147.892C102.135 147.572 103.409 147.412 103.435 147.412C103.794 147.412 103.973 147.777 103.973 148.507C103.973 149.096 103.851 149.679 103.608 150.255L101.648 150.486C101.981 151.293 102.148 152.023 102.148 152.676C102.148 153.688 101.757 154.527 100.976 155.193C100.207 155.859 99.0802 156.192 97.5944 156.192C96.1215 156.192 94.9559 155.833 94.0977 155.116C93.2396 154.386 92.8105 153.458 92.8105 152.33C92.8105 151.19 93.3549 150.217 94.4436 149.41C93.6366 148.514 93.2332 147.476 93.2332 146.298C93.2332 145.119 93.643 144.172 94.4628 143.454C95.2825 142.724 96.3456 142.359 97.652 142.359C98.9585 142.359 99.9896 142.679 100.745 143.32C101.514 143.96 101.898 144.825 101.898 145.913C101.898 146.131 101.687 146.343 101.264 146.547C100.854 146.752 100.361 146.855 99.7846 146.855C99.2083 146.855 98.8368 146.772 98.6703 146.605ZM96.5569 150.524C96.416 150.896 96.3456 151.229 96.3456 151.523C96.3456 151.805 96.3904 152.055 96.4801 152.273C96.685 152.772 97.0949 153.022 97.7097 153.022C98.1452 153.022 98.459 152.868 98.6511 152.561C98.856 152.241 98.9585 151.844 98.9585 151.37C98.9585 151.152 98.9521 150.992 98.9393 150.889C98.9265 150.774 98.9201 150.704 98.9201 150.678C98.4846 150.755 98.0555 150.793 97.6328 150.793C97.2102 150.793 96.8515 150.704 96.5569 150.524ZM107.412 156.038C106.246 156.038 105.663 155.91 105.663 155.654V143.204C105.663 142.769 105.862 142.551 106.259 142.551H109.64C111.536 142.551 112.9 142.942 113.733 143.723C114.578 144.505 115.001 145.638 115.001 147.124C115.001 148.353 114.604 149.481 113.81 150.505C113.413 151.018 112.83 151.427 112.061 151.735C111.293 152.042 110.396 152.196 109.372 152.196V155.635C109.372 155.789 109.128 155.898 108.641 155.962C108.168 156.013 107.758 156.038 107.412 156.038ZM109.372 145.894V148.93H109.621C110.07 148.93 110.447 148.789 110.755 148.507C111.062 148.225 111.216 147.828 111.216 147.316C111.216 146.804 111.107 146.439 110.889 146.221C110.684 146.003 110.313 145.894 109.775 145.894H109.372ZM120.098 155.846C120.098 155.962 119.445 156.019 118.138 156.019C117.114 156.006 116.601 155.955 116.601 155.866V142.782C116.601 142.59 117.223 142.494 118.465 142.494C119.554 142.532 120.098 142.596 120.098 142.686V155.846ZM123.046 149.026C122.688 148.385 122.508 147.867 122.508 147.47C122.508 147.06 122.617 146.797 122.835 146.682C123.565 146.362 124.564 146.202 125.832 146.202C127.113 146.202 128.016 146.503 128.541 147.105C129.066 147.694 129.329 148.571 129.329 149.737V152.772H129.982C130.2 152.772 130.366 152.9 130.482 153.157C130.61 153.413 130.674 153.765 130.674 154.213C130.674 154.662 130.559 155.103 130.328 155.539C130.11 155.974 129.809 156.192 129.425 156.192C128.733 156.192 128.176 156.006 127.753 155.635C127.561 155.481 127.414 155.296 127.312 155.078C126.722 155.821 125.807 156.192 124.564 156.192C123.629 156.192 122.841 155.859 122.201 155.193C121.561 154.527 121.24 153.739 121.24 152.83C121.24 150.742 122.489 149.698 124.987 149.698H126.044V149.506C126.044 149.173 125.986 148.962 125.871 148.872C125.768 148.77 125.518 148.718 125.121 148.718C124.635 148.718 123.943 148.821 123.046 149.026ZM124.583 152.561C124.583 152.843 124.66 153.06 124.814 153.214C124.968 153.355 125.16 153.426 125.39 153.426C125.634 153.426 125.851 153.329 126.044 153.137V151.658H125.506C124.891 151.658 124.583 151.959 124.583 152.561ZM131.089 146.49C131.089 146.349 131.672 146.278 132.837 146.278C134.015 146.278 134.624 146.343 134.662 146.471L136.046 151.005L137.371 146.432C137.423 146.33 137.82 146.278 138.562 146.278C140.266 146.278 141.079 146.362 141.002 146.528L136.488 159.381C136.475 159.458 136.122 159.497 135.431 159.497C134.752 159.497 134.118 159.471 133.529 159.42C132.94 159.381 132.658 159.33 132.683 159.266L134.355 155.232L131.089 146.49Z" fill="black"/>
	<path d="M131.395 80.7963C130.822 80.2241 130.599 79.8751 130.725 79.7494L136.837 73.6378C137.05 73.424 137.255 73.4145 137.45 73.6095L139.109 75.2694C140.04 76.2 140.518 77.0614 140.543 77.8536C140.575 78.6522 140.226 79.4161 139.496 80.1455C138.893 80.7491 138.144 81.1075 137.251 81.2207C136.805 81.2773 136.318 81.1924 135.79 80.966C135.261 80.7397 134.746 80.375 134.243 79.872L132.555 81.5602C132.479 81.6357 132.306 81.5696 132.036 81.3621C131.778 81.1547 131.564 80.966 131.395 80.7963ZM137.336 76.7784L135.846 78.2686L135.969 78.3912C136.189 78.6113 136.444 78.7276 136.733 78.7402C137.022 78.7528 137.292 78.6333 137.544 78.3818C137.795 78.1303 137.921 77.8976 137.921 77.6839C137.927 77.4764 137.799 77.2406 137.534 76.9765L137.336 76.7784ZM145.356 81.3462C145.815 81.8052 146.151 82.2737 146.365 82.7515C146.592 83.2294 146.595 83.5783 146.375 83.7984C146.155 84.0185 145.796 84.2071 145.299 84.3643C144.815 84.5215 144.517 84.5435 144.404 84.4303C144.372 84.3989 144.35 84.3454 144.337 84.27C144.337 84.1945 144.281 84.0625 144.168 83.8739C144.067 83.6852 143.963 83.5375 143.856 83.4306C143.492 83.0659 143.067 82.8993 142.583 82.9307C142.105 82.9684 141.599 83.2545 141.065 83.789C140.537 84.3171 140.257 84.8233 140.225 85.3075C140.2 85.7979 140.364 86.2192 140.716 86.5713C140.86 86.7159 141.04 86.8574 141.253 86.9957C141.48 87.134 141.668 87.2032 141.819 87.2032C141.844 87.2032 141.876 87.222 141.914 87.2598C141.951 87.2975 141.948 87.439 141.904 87.6842C141.873 87.9294 141.785 88.2124 141.64 88.533C141.502 88.8474 141.37 89.0675 141.244 89.1932C140.999 89.4384 140.615 89.4447 140.093 89.2121C139.571 88.9794 139.053 88.6053 138.537 88.0897C137.707 87.2598 137.317 86.2852 137.368 85.166C137.418 84.0468 137.974 82.9559 139.037 81.8933C140.106 80.8244 141.219 80.2585 142.376 80.1956C143.539 80.139 144.532 80.5225 145.356 81.3462ZM147.37 83.7753C147.402 83.7438 147.565 83.8507 147.861 84.096C148.169 84.3412 148.411 84.5518 148.587 84.7279C149.285 85.4258 149.558 85.8816 149.407 86.0954L146.069 91.0564L150.982 87.6705C151.202 87.5259 151.683 87.8245 152.425 88.5665C152.608 88.7488 152.825 88.9909 153.076 89.2927C153.328 89.5945 153.438 89.7611 153.406 89.7926L145.493 94.3668C145.368 94.4423 145.116 94.3228 144.739 94.0084C144.148 93.5306 143.648 93.0559 143.239 92.5843C142.843 92.1127 142.676 91.8203 142.739 91.7072L147.37 83.7753Z" fill="white"/>
</svg>

