<?xml version="1.0" encoding="UTF-8" standalone="no"?>
<!DOCTYPE svg PUBLIC "-//W3C//DTD SVG 1.1//EN" "http://www.w3.org/Graphics/SVG/1.1/DTD/svg11.dtd">
<svg width="150" height="111" viewBox="0 0 158 119" fill="none" xmlns="http://www.w3.org/2000/svg">
	<path d="M2 77.5971L4.59551 79.76L12.382 71.9735L16.7079 76.2994L19.736 73.2713L16.7079 70.2432L19.736 67.2151L22.764 70.2432L25.7921 67.2151L24.4944 65.9174L28.3876 62.0241L29.6854 63.3218L33.5787 59.4286L28.3876 54.2376L30.9831 51.6421L36.1742 56.8331L50.882 42.1252C65.0422 51.0259 88.6619 32.8777 78.5674 14.0297L68.8578 19.1982C72.1883 26.4753 61.6966 36.069 55.2079 28.7151C47.476 18.1346 59.2679 10.2338 66.4551 16.1768L75.9719 10.114C60.8315 -8.91977 33.5787 8.38361 40.9326 32.6084L2 71.9735V77.5971Z" fill="#1B263B"/>
	<path d="M2 77.5971L4.59551 79.76L12.382 71.9735L16.7079 76.2994L19.736 73.2713L16.7079 70.2432L19.736 67.2151L22.764 70.2432L25.7921 67.2151L24.4944 65.9174L28.3876 62.0241L29.6854 63.3218L33.5787 59.4286L28.3876 54.2376L30.9831 51.6421L36.1742 56.8331L50.882 42.1252C65.0422 51.0259 88.6619 32.8777 78.5674 14.0297L68.8578 19.1982C72.1883 26.4753 61.6966 36.069 55.2079 28.7151C47.476 18.1346 59.2679 10.2338 66.4551 16.1768L75.9719 10.114C60.8315 -8.91977 33.5787 8.38361 40.9326 32.6084L2 71.9735V77.5971Z" fill="#D2C22B"/>
	<path d="M86.3539 32.6083L129.18 75.4342C133.334 74.0494 135.021 73.9403 139.129 75.4342L151.242 62.4566C150.406 58.5582 149.989 56.266 151.242 52.5072L109.281 9.68135C105.006 11.1062 103.173 11.1062 98.8989 9.68135L94.7027 13.8776C96.3269 16.5409 93.2281 19.8147 90.6798 18.4249L86.3539 23.0915C87.2191 26.1196 87.6517 28.7151 86.3539 32.6083Z" fill="#1B263B"/>
	<path d="M75.9719 10.114C60.8315 -8.91977 33.5787 8.38361 40.9326 32.6084L2 71.9735V77.5971L4.59551 79.76L12.382 71.9735L16.7079 76.2994L19.736 73.2713L16.7079 70.2432L19.736 67.2151L22.764 70.2432L25.7921 67.2151L24.4944 65.9174L28.3876 62.0241L29.6854 63.3218L33.5787 59.4286L28.3876 54.2376L30.9831 51.6421L36.1742 56.8331L50.882 42.1252C65.0422 51.0259 88.6619 32.8777 78.5674 14.0297M75.9719 10.114C72.2553 12.4816 70.1716 13.8091 66.4551 16.1768M75.9719 10.114C83.0057 8.26295 85.4685 8.58977 91.9775 11.8443M75.9719 10.114L66.4551 16.1768M66.4551 16.1768C59.2679 10.2338 47.476 18.1346 55.2079 28.7151C61.6966 36.069 72.1883 26.4753 68.8578 19.1982M66.4551 16.1768C65.1573 17.4679 65.5899 20.0634 68.8578 19.1982M91.9775 11.8443L88.5169 15.305M91.9775 11.8443C94.3426 9.31026 95.6686 7.88953 98.0337 5.35551M91.9775 11.8443C92.5368 12.0618 93.0101 12.3094 93.4081 12.5766C93.9995 12.9736 94.4216 13.4166 94.7027 13.8776M91.9775 11.8443L98.0337 5.35551M88.5169 15.305L82.0281 21.7937C83.9096 26.6856 83.7936 28.5302 82.0281 33.4735L127.882 79.76C132.982 78.0602 134.991 77.8359 139.994 79.76L156 63.3218C153.925 58.135 153.51 56.6222 156 51.6421L109.713 5.35551C104.567 7.56097 103.111 7.69885 98.0337 5.35551M88.5169 15.305C84.328 12.3728 83.3402 12.1749 78.5674 14.0297M88.5169 15.305C88.8084 16.2282 89.1763 16.9385 89.5888 17.4679C89.9282 17.9035 90.2978 18.2166 90.6798 18.4249M78.5674 14.0297C74.7756 16.0481 72.6496 17.1798 68.8578 19.1982M78.5674 14.0297L68.8578 19.1982M90.6798 18.4249L86.3539 23.0915C87.2191 26.1196 87.6517 28.7151 86.3539 32.6083L129.18 75.4342C133.334 74.0494 135.021 73.9403 139.129 75.4342L151.242 62.4566C150.406 58.5582 149.989 56.266 151.242 52.5072L109.281 9.68135C105.006 11.1062 103.173 11.1062 98.8989 9.68135L94.7027 13.8776M90.6798 18.4249C93.2281 19.8147 96.3269 16.5409 94.7027 13.8776" stroke="black" stroke-width="2.59551"/>
	<path d="M37.7685 113.866V101.916C37.7685 101.647 38.4153 101.513 39.709 101.513C41.0154 101.513 41.6686 101.647 41.6686 101.916V111.33H44.6274C44.8579 111.33 45.018 111.631 45.1077 112.233C45.1461 112.528 45.1653 112.829 45.1653 113.136C45.1653 113.444 45.1461 113.758 45.1077 114.078C45.0052 114.693 44.8387 115 44.6081 115H38.6907C38.4089 115 38.1848 114.885 38.0183 114.654C37.8518 114.424 37.7685 114.161 37.7685 113.866ZM49.7296 114.885C49.7296 114.987 49.1404 115.038 47.9621 115.038C46.7965 115.038 46.2137 114.994 46.2137 114.904V105.471C46.2137 105.381 46.7965 105.336 47.9621 105.336C49.1404 105.336 49.7296 105.375 49.7296 105.451V114.885ZM49.7296 104.318C49.7296 104.408 49.1404 104.452 47.9621 104.452C46.7965 104.452 46.2137 104.414 46.2137 104.337V101.57C46.2137 101.442 46.7965 101.378 47.9621 101.378C49.1404 101.378 49.7296 101.417 49.7296 101.494V104.318ZM50.7179 105.451C50.6794 105.349 51.275 105.298 52.5046 105.298C53.747 105.298 54.3682 105.33 54.3682 105.394L55.7515 111.926L56.789 105.49C56.8274 105.375 57.4614 105.317 58.691 105.317C59.9334 105.317 60.5354 105.368 60.497 105.471L57.788 114.866C57.6984 114.994 56.9363 115.058 55.5018 115.058C54.0672 115.058 53.2987 114.962 53.1963 114.769L50.7179 105.451ZM68.7485 114.481C67.9415 114.955 66.9041 115.192 65.636 115.192C64.368 115.192 63.2985 114.763 62.4276 113.905C61.5566 113.034 61.1211 111.836 61.1211 110.312C61.1211 108.775 61.5374 107.539 62.3699 106.604C63.2153 105.669 64.2784 105.202 65.5592 105.202C66.84 105.202 67.8263 105.528 68.5179 106.181C69.2224 106.835 69.5746 107.629 69.5746 108.564C69.5746 110.639 68.3834 111.676 66.0011 111.676H64.6754C64.6754 112.06 64.7779 112.329 64.9828 112.483C65.2006 112.624 65.5144 112.695 65.9242 112.695C66.8208 112.695 67.6726 112.49 68.4795 112.08C68.4923 112.067 68.5499 112.157 68.6524 112.349C68.9598 112.899 69.1135 113.367 69.1135 113.751C69.1135 114.123 68.9918 114.366 68.7485 114.481ZM66.3469 108.929C66.3469 108.391 66.0843 108.122 65.5592 108.122C65.3158 108.122 65.1045 108.199 64.9252 108.352C64.7587 108.493 64.6754 108.705 64.6754 108.986V109.582H65.7129C66.1356 109.582 66.3469 109.364 66.3469 108.929ZM76.6703 105.605L76.6895 105.413C76.6895 105.093 76.5806 104.837 76.3629 104.644C76.158 104.452 75.9018 104.356 75.5944 104.356C75.287 104.356 75.0308 104.459 74.8259 104.664C74.621 104.869 74.5185 105.15 74.5185 105.509C74.5185 106.482 75.2038 106.969 76.5742 106.969C76.8816 106.969 77.2275 106.944 77.6117 106.892C80.135 106.572 81.4094 106.412 81.435 106.412C81.7936 106.412 81.9729 106.777 81.9729 107.507C81.9729 108.096 81.8513 108.679 81.6079 109.255L79.6482 109.486C79.9813 110.293 80.1478 111.023 80.1478 111.676C80.1478 112.688 79.7571 113.527 78.9758 114.193C78.2073 114.859 77.0802 115.192 75.5944 115.192C74.1215 115.192 72.9559 114.833 72.0977 114.116C71.2396 113.386 70.8105 112.458 70.8105 111.33C70.8105 110.19 71.3549 109.217 72.4436 108.41C71.6366 107.514 71.2332 106.476 71.2332 105.298C71.2332 104.119 71.643 103.172 72.4628 102.454C73.2825 101.724 74.3456 101.359 75.652 101.359C76.9585 101.359 77.9896 101.679 78.7453 102.32C79.5138 102.96 79.898 103.825 79.898 104.913C79.898 105.131 79.6867 105.343 79.264 105.547C78.8541 105.752 78.361 105.855 77.7846 105.855C77.2083 105.855 76.8368 105.772 76.6703 105.605ZM74.5569 109.524C74.416 109.896 74.3456 110.229 74.3456 110.523C74.3456 110.805 74.3904 111.055 74.4801 111.273C74.685 111.772 75.0949 112.022 75.7097 112.022C76.1452 112.022 76.459 111.868 76.6511 111.561C76.856 111.241 76.9585 110.844 76.9585 110.37C76.9585 110.152 76.9521 109.992 76.9393 109.889C76.9265 109.774 76.9201 109.704 76.9201 109.678C76.4846 109.755 76.0555 109.793 75.6328 109.793C75.2102 109.793 74.8515 109.704 74.5569 109.524ZM85.4118 115.038C84.2463 115.038 83.6635 114.91 83.6635 114.654V102.204C83.6635 101.769 83.862 101.551 84.2591 101.551H87.6405C89.5361 101.551 90.9002 101.942 91.7327 102.723C92.5781 103.505 93.0008 104.638 93.0008 106.124C93.0008 107.353 92.6037 108.481 91.8096 109.505C91.4125 110.018 90.8297 110.427 90.0612 110.735C89.2927 111.042 88.3962 111.196 87.3715 111.196V114.635C87.3715 114.789 87.1281 114.898 86.6414 114.962C86.1675 115.013 85.7577 115.038 85.4118 115.038ZM87.3715 104.894V107.93H87.6213C88.0696 107.93 88.4474 107.789 88.7548 107.507C89.0622 107.225 89.2159 106.828 89.2159 106.316C89.2159 105.804 89.107 105.439 88.8893 105.221C88.6844 105.003 88.3129 104.894 87.775 104.894H87.3715ZM98.0981 114.846C98.0981 114.962 97.4448 115.019 96.1384 115.019C95.1137 115.006 94.6014 114.955 94.6014 114.866V101.782C94.6014 101.59 95.2226 101.494 96.465 101.494C97.5537 101.532 98.0981 101.596 98.0981 101.686V114.846ZM101.046 108.026C100.688 107.385 100.508 106.867 100.508 106.47C100.508 106.06 100.617 105.797 100.835 105.682C101.565 105.362 102.564 105.202 103.832 105.202C105.113 105.202 106.016 105.503 106.541 106.105C107.066 106.694 107.329 107.571 107.329 108.737V111.772H107.982C108.2 111.772 108.366 111.9 108.482 112.157C108.61 112.413 108.674 112.765 108.674 113.213C108.674 113.662 108.559 114.103 108.328 114.539C108.11 114.974 107.809 115.192 107.425 115.192C106.733 115.192 106.176 115.006 105.753 114.635C105.561 114.481 105.414 114.296 105.312 114.078C104.722 114.821 103.807 115.192 102.564 115.192C101.629 115.192 100.841 114.859 100.201 114.193C99.5607 113.527 99.2405 112.739 99.2405 111.83C99.2405 109.742 100.489 108.698 102.987 108.698H104.044V108.506C104.044 108.173 103.986 107.962 103.871 107.872C103.768 107.77 103.518 107.718 103.121 107.718C102.635 107.718 101.943 107.821 101.046 108.026ZM102.583 111.561C102.583 111.843 102.66 112.06 102.814 112.214C102.968 112.355 103.16 112.426 103.39 112.426C103.634 112.426 103.851 112.329 104.044 112.137V110.658H103.506C102.891 110.658 102.583 110.959 102.583 111.561ZM109.089 105.49C109.089 105.349 109.672 105.278 110.837 105.278C112.015 105.278 112.624 105.343 112.662 105.471L114.046 110.005L115.371 105.432C115.423 105.33 115.82 105.278 116.562 105.278C118.266 105.278 119.079 105.362 119.002 105.528L114.488 118.381C114.475 118.458 114.122 118.497 113.431 118.497C112.752 118.497 112.118 118.471 111.529 118.42C110.94 118.381 110.658 118.33 110.683 118.266L112.355 114.232L109.089 105.49Z" fill="black"/>
	<path d="M109.395 39.7963C108.822 39.2241 108.599 38.8751 108.725 38.7494L114.837 32.6378C115.05 32.424 115.255 32.4145 115.45 32.6095L117.109 34.2694C118.04 35.2 118.518 36.0614 118.543 36.8536C118.575 37.6522 118.226 38.4161 117.496 39.1455C116.893 39.7491 116.144 40.1075 115.251 40.2207C114.805 40.2773 114.318 40.1924 113.79 39.966C113.261 39.7397 112.746 39.375 112.243 38.872L110.555 40.5602C110.479 40.6357 110.306 40.5696 110.036 40.3621C109.778 40.1547 109.564 39.966 109.395 39.7963ZM115.336 35.7784L113.846 37.2686L113.969 37.3912C114.189 37.6113 114.444 37.7276 114.733 37.7402C115.022 37.7528 115.292 37.6333 115.544 37.3818C115.795 37.1303 115.921 36.8976 115.921 36.6839C115.927 36.4764 115.799 36.2406 115.534 35.9765L115.336 35.7784ZM123.356 40.3462C123.815 40.8052 124.151 41.2737 124.365 41.7515C124.592 42.2294 124.595 42.5783 124.375 42.7984C124.155 43.0185 123.796 43.2071 123.299 43.3643C122.815 43.5215 122.517 43.5435 122.404 43.4303C122.372 43.3989 122.35 43.3454 122.337 43.27C122.337 43.1945 122.281 43.0625 122.168 42.8739C122.067 42.6852 121.963 42.5375 121.856 42.4306C121.492 42.0659 121.067 41.8993 120.583 41.9307C120.105 41.9684 119.599 42.2545 119.065 42.789C118.537 43.3171 118.257 43.8233 118.225 44.3075C118.2 44.7979 118.364 45.2192 118.716 45.5713C118.86 45.7159 119.04 45.8574 119.253 45.9957C119.48 46.134 119.668 46.2032 119.819 46.2032C119.844 46.2032 119.876 46.222 119.914 46.2598C119.951 46.2975 119.948 46.439 119.904 46.6842C119.873 46.9294 119.785 47.2124 119.64 47.533C119.502 47.8474 119.37 48.0675 119.244 48.1932C118.999 48.4384 118.615 48.4447 118.093 48.2121C117.571 47.9794 117.053 47.6053 116.537 47.0897C115.707 46.2598 115.317 45.2852 115.368 44.166C115.418 43.0468 115.974 41.9559 117.037 40.8933C118.106 39.8244 119.219 39.2585 120.376 39.1956C121.539 39.139 122.532 39.5225 123.356 40.3462ZM125.37 42.7753C125.402 42.7438 125.565 42.8507 125.861 43.096C126.169 43.3412 126.411 43.5518 126.587 43.7279C127.285 44.4258 127.558 44.8816 127.407 45.0954L124.069 50.0564L128.982 46.6705C129.202 46.5259 129.683 46.8245 130.425 47.5665C130.608 47.7488 130.825 47.9909 131.076 48.2927C131.328 48.5945 131.438 48.7611 131.406 48.7926L123.493 53.3668C123.368 53.4423 123.116 53.3228 122.739 53.0084C122.148 52.5306 121.648 52.0559 121.239 51.5843C120.843 51.1127 120.676 50.8203 120.739 50.7072L125.37 42.7753Z" fill="white"/>
</svg>


