<?xml version="1.0" encoding="UTF-8" standalone="no"?>
<svg width="35" height="35" viewBox="0 0 35 35" fill="none" xmlns="http://www.w3.org/2000/svg">
	<path d="M23.4792 19.3958L21.3646 17.2812C21.5833 16.1389 21.2552 15.0694 20.3802 14.0729C19.5052 13.0764 18.375 12.6875 16.9896 12.9062L14.875 10.7916C15.2882 10.5972 15.7075 10.4514 16.1328 10.3541C16.5582 10.2569 17.0139 10.2083 17.5 10.2083C19.3229 10.2083 20.8724 10.8463 22.1484 12.1224C23.4245 13.3984 24.0625 14.9479 24.0625 16.7708C24.0625 17.2569 24.0139 17.7127 23.9167 18.138C23.8195 18.5633 23.6736 18.9826 23.4792 19.3958ZM28.1458 23.9896L26.0313 21.9479C26.9549 21.243 27.7752 20.4713 28.4922 19.6328C29.2092 18.7943 29.8229 17.8403 30.3333 16.7708C29.1181 14.316 27.3741 12.3654 25.1016 10.9193C22.829 9.47307 20.2951 8.74998 17.5 8.74998C16.7951 8.74998 16.1024 8.79859 15.4219 8.89581C14.7413 8.99304 14.0729 9.13887 13.4167 9.33331L11.1563 7.0729C12.1528 6.6597 13.1736 6.34981 14.2188 6.14321C15.2639 5.93661 16.3576 5.83331 17.5 5.83331C21.1701 5.83331 24.4392 6.84807 27.3073 8.87758C30.1754 10.9071 32.2535 13.5382 33.5417 16.7708C32.9826 18.2048 32.2474 19.5356 31.3359 20.763C30.4245 21.9904 29.3611 23.066 28.1458 23.9896ZM28.875 32.9583L22.75 26.9062C21.8993 27.1736 21.0425 27.3741 20.1797 27.5078C19.3168 27.6415 18.4236 27.7083 17.5 27.7083C13.8299 27.7083 10.5608 26.6936 7.69272 24.664C4.82466 22.6345 2.74654 20.0035 1.45834 16.7708C1.96876 15.4826 2.61286 14.2856 3.39064 13.1797C4.16841 12.0738 5.05557 11.0833 6.05209 10.2083L2.04168 6.12498L4.08334 4.08331L30.9167 30.9166L28.875 32.9583ZM8.09376 12.25C7.3889 12.8819 6.7448 13.5746 6.16147 14.3281C5.57814 15.0816 5.07987 15.8958 4.66668 16.7708C5.88195 19.2257 7.62588 21.1762 9.89845 22.6224C12.171 24.0686 14.7049 24.7916 17.5 24.7916C17.9861 24.7916 18.4601 24.7613 18.9219 24.7005C19.3837 24.6397 19.8576 24.5729 20.3438 24.5L19.0313 23.1146C18.7639 23.1875 18.5087 23.2422 18.2656 23.2786C18.0226 23.3151 17.7674 23.3333 17.5 23.3333C15.6771 23.3333 14.1276 22.6953 12.8516 21.4193C11.5755 20.1432 10.9375 18.5937 10.9375 16.7708C10.9375 16.5035 10.9557 16.2482 10.9922 16.0052C11.0287 15.7621 11.0833 15.5069 11.1563 15.2396L8.09376 12.25Z" fill="white"/>
</svg>

