<?xml version="1.0" encoding="UTF-8" standalone="no"?>
<svg width="29" height="29" viewBox="0 0 29 29" fill="none" xmlns="http://www.w3.org/2000/svg">
	<circle cx="14.5" cy="14.5" r="14.5" fill="#778DA9"/>
	<path d="M14.7191 20.6101C13.9329 20.6101 13.2175 20.4747 12.5731 20.2041C11.9415 19.9205 11.3938 19.5339 10.9298 19.0441C10.4658 18.5543 10.1049 17.9936 9.84708 17.3621C9.6022 16.7305 9.47975 16.0603 9.47975 15.3514C9.47975 14.3976 9.69242 13.5276 10.1178 12.7414C10.556 11.9552 11.1618 11.3236 11.9351 10.8467C12.7213 10.3699 13.6493 10.1314 14.7191 10.1314C15.7502 10.1314 16.646 10.3634 17.4064 10.8274C18.1798 11.2785 18.7469 11.8843 19.1078 12.6447L17.0391 13.3021C16.8071 12.8767 16.4784 12.5481 16.0531 12.3161C15.6406 12.0712 15.1831 11.9487 14.6804 11.9487C14.1133 11.9487 13.5978 12.097 13.1338 12.3934C12.6826 12.677 12.3218 13.0765 12.0511 13.5921C11.7933 14.0947 11.6644 14.6812 11.6644 15.3514C11.6644 15.9959 11.7998 16.5823 12.0704 17.1107C12.3411 17.6263 12.702 18.0387 13.1531 18.3481C13.6171 18.6445 14.1326 18.7927 14.6998 18.7927C15.0478 18.7927 15.3829 18.7347 15.7051 18.6187C16.0402 18.4899 16.3302 18.3223 16.5751 18.1161C16.82 17.897 16.994 17.6585 17.0971 17.4007L19.1851 18.0194C18.966 18.5221 18.6373 18.9667 18.1991 19.3534C17.7738 19.7401 17.2646 20.0494 16.6718 20.2814C16.0918 20.5005 15.4409 20.6101 14.7191 20.6101Z" fill="white"/>
</svg>


