<svg width="40" height="40" viewBox="0 0 40 40" fill="none" xmlns="http://www.w3.org/2000/svg">
<path d="M15.125 23.7502L20 20.7918L24.875 23.7502L23.5834 18.2085L27.9167 14.4585L22.2084 14.0002L20 8.75016L17.7917 14.0002L12.0834 14.4585L16.4167 18.2085L15.125 23.7502ZM3.33337 36.6668V6.66683C3.33337 5.75016 3.65976 4.96544 4.31254 4.31266C4.96532 3.65989 5.75004 3.3335 6.66671 3.3335H33.3334C34.25 3.3335 35.0348 3.65989 35.6875 4.31266C36.3403 4.96544 36.6667 5.75016 36.6667 6.66683V26.6668C36.6667 27.5835 36.3403 28.3682 35.6875 29.021C35.0348 29.6738 34.25 30.0002 33.3334 30.0002H10L3.33337 36.6668ZM8.58337 26.6668H33.3334V6.66683H6.66671V28.5418L8.58337 26.6668Z" fill="#616364"/>
</svg>
