<?xml version="1.0" encoding="UTF-8" standalone="no"?>
<svg width="35" height="35" viewBox="0 0 35 35" fill="none" xmlns="http://www.w3.org/2000/svg">
	<path d="M23.4792 19.3958L21.3646 17.2813C21.5833 16.1389 21.2552 15.0695 20.3802 14.0729C19.5052 13.0764 18.375 12.6875 16.9896 12.9063L14.875 10.7917C15.2882 10.5972 15.7075 10.4514 16.1328 10.3542C16.5582 10.257 17.0139 10.2083 17.5 10.2083C19.3229 10.2083 20.8724 10.8464 22.1484 12.1224C23.4245 13.3984 24.0625 14.9479 24.0625 16.7708C24.0625 17.257 24.0139 17.7127 23.9167 18.138C23.8195 18.5634 23.6736 18.9827 23.4792 19.3958ZM28.1458 23.9896L26.0313 21.9479C26.9549 21.2431 27.7752 20.4714 28.4922 19.6328C29.2092 18.7943 29.8229 17.8403 30.3333 16.7708C29.1181 14.316 27.3741 12.3655 25.1016 10.9193C22.829 9.4731 20.2951 8.75001 17.5 8.75001C16.7951 8.75001 16.1024 8.79862 15.4219 8.89584C14.7413 8.99307 14.0729 9.1389 13.4167 9.33334L11.1563 7.07293C12.1528 6.65973 13.1736 6.34984 14.2188 6.14324C15.2639 5.93664 16.3576 5.83334 17.5 5.83334C21.1701 5.83334 24.4392 6.8481 27.3073 8.87761C30.1754 10.9071 32.2535 13.5382 33.5417 16.7708C32.9826 18.2049 32.2474 19.5356 31.3359 20.763C30.4245 21.9905 29.3611 23.066 28.1458 23.9896ZM28.875 32.9583L22.75 26.9063C21.8993 27.1736 21.0425 27.3741 20.1797 27.5078C19.3168 27.6415 18.4236 27.7083 17.5 27.7083C13.8299 27.7083 10.5608 26.6936 7.69272 24.6641C4.82466 22.6346 2.74654 20.0035 1.45834 16.7708C1.96876 15.4826 2.61286 14.2856 3.39064 13.1797C4.16841 12.0738 5.05557 11.0833 6.05209 10.2083L2.04168 6.12501L4.08334 4.08334L30.9167 30.9167L28.875 32.9583ZM8.09376 12.25C7.3889 12.882 6.7448 13.5747 6.16147 14.3281C5.57814 15.0816 5.07987 15.8958 4.66668 16.7708C5.88195 19.2257 7.62588 21.1762 9.89845 22.6224C12.171 24.0686 14.7049 24.7917 17.5 24.7917C17.9861 24.7917 18.4601 24.7613 18.9219 24.7005C19.3837 24.6398 19.8576 24.5729 20.3438 24.5L19.0313 23.1146C18.7639 23.1875 18.5087 23.2422 18.2656 23.2787C18.0226 23.3151 17.7674 23.3333 17.5 23.3333C15.6771 23.3333 14.1276 22.6953 12.8516 21.4193C11.5755 20.1432 10.9375 18.5938 10.9375 16.7708C10.9375 16.5035 10.9557 16.2483 10.9922 16.0052C11.0287 15.7622 11.0833 15.507 11.1563 15.2396L8.09376 12.25Z" fill="#0D1B2A"/>
</svg>
