<?xml version="1.0" encoding="UTF-8" standalone="no"?>
<svg width="35" height="35" viewBox="0 0 35 35" fill="none" xmlns="http://www.w3.org/2000/svg">
	<path d="M17.5 23.3333C19.3229 23.3333 20.8724 22.6953 22.1484 21.4192C23.4245 20.1432 24.0625 18.5937 24.0625 16.7708C24.0625 14.9479 23.4245 13.3984 22.1484 12.1224C20.8724 10.8463 19.3229 10.2083 17.5 10.2083C15.6771 10.2083 14.1276 10.8463 12.8516 12.1224C11.5755 13.3984 10.9375 14.9479 10.9375 16.7708C10.9375 18.5937 11.5755 20.1432 12.8516 21.4192C14.1276 22.6953 15.6771 23.3333 17.5 23.3333ZM17.5 20.7083C16.4063 20.7083 15.4766 20.3255 14.7109 19.5599C13.9453 18.7943 13.5625 17.8646 13.5625 16.7708C13.5625 15.6771 13.9453 14.7474 14.7109 13.9818C15.4766 13.2161 16.4063 12.8333 17.5 12.8333C18.5938 12.8333 19.5234 13.2161 20.2891 13.9818C21.0547 14.7474 21.4375 15.6771 21.4375 16.7708C21.4375 17.8646 21.0547 18.7943 20.2891 19.5599C19.5234 20.3255 18.5938 20.7083 17.5 20.7083ZM17.5 27.7083C13.9514 27.7083 10.7188 26.7179 7.80209 24.737C4.88543 22.7561 2.77084 20.1007 1.45834 16.7708C2.77084 13.441 4.88543 10.7856 7.80209 8.80467C10.7188 6.82376 13.9514 5.83331 17.5 5.83331C21.0486 5.83331 24.2813 6.82376 27.1979 8.80467C30.1146 10.7856 32.2292 13.441 33.5417 16.7708C32.2292 20.1007 30.1146 22.7561 27.1979 24.737C24.2813 26.7179 21.0486 27.7083 17.5 27.7083ZM17.5 24.7916C20.2465 24.7916 22.7682 24.0686 25.0651 22.6224C27.362 21.1762 29.1181 19.2257 30.3333 16.7708C29.1181 14.316 27.362 12.3654 25.0651 10.9193C22.7682 9.47307 20.2465 8.74998 17.5 8.74998C14.7535 8.74998 12.2318 9.47307 9.93491 10.9193C7.63803 12.3654 5.88195 14.316 4.66668 16.7708C5.88195 19.2257 7.63803 21.1762 9.93491 22.6224C12.2318 24.0686 14.7535 24.7916 17.5 24.7916Z" fill="white"/>
</svg>

