<svg width="74" height="74" viewBox="0 0 74 74" fill="none" xmlns="http://www.w3.org/2000/svg">
	<circle cx="36.9165" cy="36.9165" r="36.9165" fill="#778DA9"/>
	<path d="M37.665 53.55C35.4283 53.55 33.3933 53.165 31.56 52.395C29.7633 51.5883 28.205 50.4883 26.885 49.095C25.565 47.7017 24.5383 46.1067 23.805 44.31C23.1083 42.5133 22.76 40.6067 22.76 38.59C22.76 35.8767 23.365 33.4017 24.575 31.165C25.8217 28.9283 27.545 27.1317 29.745 25.775C31.9817 24.4183 34.6217 23.74 37.665 23.74C40.5983 23.74 43.1467 24.4 45.31 25.72C47.51 27.0033 49.1233 28.7267 50.15 30.89L44.265 32.76C43.605 31.55 42.67 30.615 41.46 29.955C40.2867 29.2583 38.985 28.91 37.555 28.91C35.9417 28.91 34.475 29.3317 33.155 30.175C31.8717 30.9817 30.845 32.1183 30.075 33.585C29.3417 35.015 28.975 36.6833 28.975 38.59C28.975 40.4233 29.36 42.0917 30.13 43.595C30.9 45.0617 31.9267 46.235 33.21 47.115C34.53 47.9583 35.9967 48.38 37.61 48.38C38.6 48.38 39.5533 48.215 40.47 47.885C41.4233 47.5183 42.2483 47.0417 42.945 46.455C43.6417 45.8317 44.1367 45.1533 44.43 44.42L50.37 46.18C49.7467 47.61 48.8117 48.875 47.565 49.975C46.355 51.075 44.9067 51.955 43.22 52.615C41.57 53.2383 39.7183 53.55 37.665 53.55Z" fill="white"/>
</svg>
