<svg width="105" height="105" viewBox="0 0 105 105" fill="none" xmlns="http://www.w3.org/2000/svg">
	<rect x="1.5" y="1.5" width="102" height="102" rx="3.5" stroke="#0D1B2A" stroke-width="3"/>
	<path d="M56.875 91.875V83.125H65.625V91.875H56.875ZM48.125 83.125V61.25H56.875V83.125H48.125ZM83.125 70V52.5H91.875V70H83.125ZM74.375 52.5V43.75H83.125V52.5H74.375ZM21.875 61.25V52.5H30.625V61.25H21.875ZM13.125 52.5V43.75H21.875V52.5H13.125ZM52.5 21.875V13.125H61.25V21.875H52.5ZM19.6875 32.8125H32.8125V19.6875H19.6875V32.8125ZM13.125 35V17.5C13.125 16.2604 13.5443 15.2214 14.3828 14.3828C15.2214 13.5443 16.2604 13.125 17.5 13.125H35C36.2396 13.125 37.2786 13.5443 38.1172 14.3828C38.9557 15.2214 39.375 16.2604 39.375 17.5V35C39.375 36.2396 38.9557 37.2786 38.1172 38.1172C37.2786 38.9557 36.2396 39.375 35 39.375H17.5C16.2604 39.375 15.2214 38.9557 14.3828 38.1172C13.5443 37.2786 13.125 36.2396 13.125 35ZM19.6875 85.3125H32.8125V72.1875H19.6875V85.3125ZM13.125 87.5V70C13.125 68.7604 13.5443 67.7214 14.3828 66.8828C15.2214 66.0443 16.2604 65.625 17.5 65.625H35C36.2396 65.625 37.2786 66.0443 38.1172 66.8828C38.9557 67.7214 39.375 68.7604 39.375 70V87.5C39.375 88.7396 38.9557 89.7786 38.1172 90.6172C37.2786 91.4557 36.2396 91.875 35 91.875H17.5C16.2604 91.875 15.2214 91.4557 14.3828 90.6172C13.5443 89.7786 13.125 88.7396 13.125 87.5ZM72.1875 32.8125H85.3125V19.6875H72.1875V32.8125ZM65.625 35V17.5C65.625 16.2604 66.0443 15.2214 66.8828 14.3828C67.7214 13.5443 68.7604 13.125 70 13.125H87.5C88.7396 13.125 89.7786 13.5443 90.6172 14.3828C91.4557 15.2214 91.875 16.2604 91.875 17.5V35C91.875 36.2396 91.4557 37.2786 90.6172 38.1172C89.7786 38.9557 88.7396 39.375 87.5 39.375H70C68.7604 39.375 67.7214 38.9557 66.8828 38.1172C66.0443 37.2786 65.625 36.2396 65.625 35ZM74.375 91.875V78.75H65.625V70H83.125V83.125H91.875V91.875H74.375ZM56.875 61.25V52.5H74.375V61.25H56.875ZM39.375 61.25V52.5H30.625V43.75H56.875V52.5H48.125V61.25H39.375ZM43.75 39.375V21.875H52.5V30.625H61.25V39.375H43.75ZM22.9688 29.5312V22.9688H29.5312V29.5312H22.9688ZM22.9688 82.0312V75.4688H29.5312V82.0312H22.9688ZM75.4688 29.5312V22.9688H82.0312V29.5312H75.4688Z" fill="#E8EAED"/>
</svg>
